<svg width="457" height="380" viewBox="0 0 457 380" fill="none" xmlns="http://www.w3.org/2000/svg">
<path d="M162.562 119.469V97.25H10.6875V119.469H73.9688V302H99.2812V119.469H162.562Z" fill="#4A5568"/>
<path d="M370.062 113H343.906V149.844H303.969V169.953H343.906V252.641C343.906 262.016 345.125 270.031 347.562 276.688C350.094 283.25 353.516 288.594 357.828 292.719C362.141 296.938 367.203 300.031 373.016 302C378.922 303.875 385.25 304.812 392 304.812C396.031 304.812 400.062 304.625 404.094 304.25C408.219 303.875 412.109 303.312 415.766 302.562C419.422 301.906 422.797 301.109 425.891 300.172C428.984 299.141 431.609 297.969 433.766 296.656L430.109 278.234C428.516 278.609 426.453 279.078 423.922 279.641C421.484 280.109 418.859 280.578 416.047 281.047C413.141 281.516 410.188 281.938 407.188 282.312C404.188 282.594 401.281 282.734 398.469 282.734C394.625 282.734 390.969 282.266 387.5 281.328C384.125 280.391 381.125 278.75 378.5 276.406C375.875 274.156 373.812 271.109 372.312 267.266C370.812 263.422 370.062 258.547 370.062 252.641V169.953H428V149.844H370.062V113Z" fill="#4A5568"/>
<path fill-rule="evenodd" clip-rule="evenodd" d="M122.36 174.34C126.977 171.31 133.176 172.595 136.207 177.212L147.738 194.778C151.242 176.971 161.625 160.527 178.006 149.774C203.498 133.039 235.86 135.113 258.801 152.56C263.198 155.903 264.052 162.176 260.708 166.573C257.365 170.969 251.092 171.822 246.695 168.48C230.289 156.003 207.168 154.555 188.981 166.493C175.314 175.465 167.475 190.002 166.512 205.167L191.597 188.7C196.214 185.67 202.414 186.955 205.444 191.572C208.475 196.189 207.189 202.389 202.572 205.42L160.774 232.858C156.157 235.889 149.957 234.603 146.926 229.986L119.488 188.188C116.457 183.571 117.743 177.371 122.36 174.34ZM172.131 250.011C175.474 245.615 181.748 244.761 186.144 248.104C202.551 260.581 225.672 262.029 243.858 250.09C257.526 241.119 265.365 226.582 266.327 211.417L241.243 227.883C236.626 230.914 230.426 229.628 227.395 225.011C224.364 220.394 225.65 214.195 230.267 211.164L272.066 183.725C274.283 182.27 276.988 181.755 279.584 182.293C282.181 182.832 284.458 184.38 285.913 186.597L313.352 228.396C316.383 233.013 315.097 239.212 310.48 242.243C305.863 245.274 299.663 243.988 296.632 239.371L285.101 221.805C281.598 239.612 271.215 256.057 254.834 266.81C229.342 283.544 196.98 281.47 174.038 264.023C169.642 260.681 168.788 254.407 172.131 250.011Z" fill="#2459B6"/>
</svg>
