<svg width="552" height="302" viewBox="0 0 552 302" fill="none" xmlns="http://www.w3.org/2000/svg">
<path d="M401.004 301.002C483.848 301.002 551.006 233.844 551.006 151C551.006 68.1566 483.848 0.998535 401.004 0.998535C318.16 0.998535 251.002 68.1566 251.002 151C251.002 233.844 318.16 301.002 401.004 301.002Z" fill="#0479C2"/>
<path d="M412.217 128.33H448.553C448.553 128.33 456.222 128.33 452.271 137.022L389.523 241.288H377.903L388.966 173.125L352.072 172.893C352.072 172.893 345.519 170.29 350.492 161.83L412.101 59.9235H424.186L412.217 128.33Z" fill="white"/>
<path d="M233.9 299.4C230.419 300.82 226.626 301.303 222.9 300.8C176.127 294.523 131.636 276.761 93.4 249.1C54.2058 220.481 23.039 182.255 2.90001 138.1C1.33605 134.641 0.715754 130.83 1.10217 127.053C1.48858 123.277 2.86793 119.67 5.10001 116.6C34.3546 76.643 73.5988 45.0782 118.898 25.0699C164.198 5.0615 213.961 -2.68739 263.2 2.6C267.044 3.03745 270.698 4.50385 273.778 6.84461C276.858 9.18538 279.249 12.3138 280.7 15.9C299.191 62.0617 305.193 112.281 298.1 161.5C291.035 209.187 271.972 254.297 242.7 292.6C240.417 295.603 237.381 297.948 233.9 299.4V299.4Z" fill="url(#paint0_linear)"/>
<path d="M233.9 200.4L231.7 199.9C230.261 199.395 228.937 198.612 227.801 197.595C226.665 196.577 225.742 195.346 225.082 193.972C224.423 192.597 224.041 191.106 223.958 189.584C223.875 188.062 224.093 186.538 224.6 185.1C228.2 174.8 224.8 170.1 223.7 168.6C214.8 156 184.4 154.9 171.8 155C140.9 155.2 120.2 147.6 110.2 132.4C100.2 117.2 104.1 101 107.6 93.2C108.957 90.5864 111.258 88.5869 114.035 87.607C116.812 86.627 119.858 86.74 122.555 87.9231C125.252 89.1062 127.398 91.2707 128.557 93.9777C129.717 96.6847 129.804 99.7314 128.8 102.5C128.7 102.8 124.8 112.6 129.6 119.8C134.4 127 149.8 132 171.6 131.8C207.5 131.6 231.3 139.4 242.6 155.1C250.1 165.6 251.4 178.6 246.4 192.8C245.522 195.321 243.795 197.457 241.514 198.844C239.234 200.23 236.542 200.781 233.9 200.4Z" fill="white"/>
<path opacity="0.7" d="M141.6 79.1C151.836 75.6453 162.6 74.0205 173.4 74.3C197.4 75 211.6 83.1 226.6 102.7C228.133 104.72 230.328 106.136 232.8 106.7C234.992 107.256 237.303 107.109 239.407 106.282C241.511 105.454 243.303 103.987 244.529 102.087C245.755 100.188 246.354 97.9508 246.241 95.6925C246.128 93.4342 245.309 91.2682 243.9 89.5C220 58.3 195.3 53.3 174.1 52.6C160.327 52.184 146.596 54.3199 133.6 58.9C132.158 59.338 130.823 60.0701 129.679 61.0502C128.534 62.0303 127.605 63.2371 126.951 64.5942C126.296 65.9514 125.93 67.4296 125.876 68.9354C125.821 70.4412 126.079 71.9419 126.634 73.3429C127.189 74.7438 128.028 76.0145 129.099 77.0747C130.17 78.1349 131.449 78.9616 132.855 79.5026C134.261 80.0436 135.764 80.2871 137.27 80.2178C138.775 80.1485 140.249 79.7679 141.6 79.1V79.1Z" fill="white"/>
<path opacity="0.7" d="M212 207.2C201.742 210.706 190.936 212.332 180.1 212C156.1 211.3 136.4 201 121.4 181.4C120.603 180.107 119.544 178.994 118.292 178.134C117.039 177.274 115.621 176.686 114.128 176.406C112.634 176.126 111.099 176.162 109.621 176.51C108.142 176.859 106.752 177.513 105.541 178.43C104.33 179.347 103.324 180.507 102.587 181.836C101.851 183.165 101.4 184.633 101.265 186.146C101.129 187.659 101.311 189.184 101.799 190.623C102.288 192.061 103.071 193.382 104.1 194.5C121.3 217.1 141.9 227.1 160 231.2C166.405 232.658 172.935 233.495 179.5 233.7C193.244 234.167 206.951 232.03 219.9 227.4C222.579 226.352 224.732 224.284 225.885 221.649C227.038 219.014 227.098 216.029 226.05 213.35C225.002 210.671 222.934 208.518 220.299 207.365C217.664 206.212 214.679 206.152 212 207.2V207.2Z" fill="white"/>
<defs>
<linearGradient id="paint0_linear" x1="1.00001" y1="151" x2="301" y2="151" gradientUnits="userSpaceOnUse">
<stop stop-color="#007C42"/>
<stop offset="1" stop-color="#6CCE7A"/>
</linearGradient>
</defs>
</svg>
